REM DIRINDEX 1\3,1\2\4,1\2\5,1\2\6
REM DIRNAME folder01,folder02,folder03,folder04,folder05,folder06
TITLE ""
FILE "" MP3
  TRACK 01 AUDIO
    TITLE "4:cjc137_6926"
    INDEX 01 00:00:00
  TRACK 02 AUDIO
    TITLE "0:"
    INDEX 01 00:01:34
  TRACK 03 AUDIO
    TITLE "6:cjc137_6927"
    INDEX 01 00:01:38
  TRACK 04 AUDIO
    TITLE "0:"
    INDEX 01 00:03:31
  TRACK 05 AUDIO
    TITLE "5:cjc137_6928"
    INDEX 01 00:03:39
  TRACK 06 AUDIO
    TITLE "0:"
    INDEX 01 00:04:72
  TRACK 07 AUDIO
    TITLE "4:cjc137_6929"
    INDEX 01 00:06:06
  TRACK 08 AUDIO
    TITLE "0:"
    INDEX 01 00:07:25
  TRACK 09 AUDIO
    TITLE "6:cjc137_6930"
    INDEX 01 00:07:35
  TRACK 10 AUDIO
    TITLE "0:"
    INDEX 01 00:08:54
  TRACK 11 AUDIO
    TITLE "5:cjc137_6931"
    INDEX 01 00:08:64
  TRACK 12 AUDIO
    TITLE "0:"
    INDEX 01 00:10:04
  TRACK 13 AUDIO
    TITLE "4:cjc137_6932"
    INDEX 01 00:11:17
  TRACK 14 AUDIO
    TITLE "0:"
    INDEX 01 00:12:40
  TRACK 15 AUDIO
    TITLE "6:cjc137_6933"
    INDEX 01 00:12:48
  TRACK 16 AUDIO
    TITLE "0:"
    INDEX 01 00:14:11
  TRACK 17 AUDIO
    TITLE "5:cjc137_6934"
    INDEX 01 00:14:17
  TRACK 18 AUDIO
    TITLE "0:"
    INDEX 01 00:15:38
  TRACK 19 AUDIO
    TITLE "4:cjc137_6935"
    INDEX 01 00:16:48
  TRACK 20 AUDIO
    TITLE "0:"
    INDEX 01 00:18:05
  TRACK 21 AUDIO
    TITLE "6:cjc137_6936"
    INDEX 01 00:18:11
  TRACK 22 AUDIO
    TITLE "0:"
    INDEX 01 00:19:20
  TRACK 23 AUDIO
    TITLE "5:cjc137_6937"
    INDEX 01 00:19:26
  TRACK 24 AUDIO
    TITLE "0:"
    INDEX 01 00:20:61
  TRACK 25 AUDIO
    TITLE "4:cjc137_6938"
    INDEX 01 00:21:68
  TRACK 26 AUDIO
    TITLE "0:"
    INDEX 01 00:24:06
  TRACK 27 AUDIO
    TITLE "6:cjc137_6939"
    INDEX 01 00:24:12
  TRACK 28 AUDIO
    TITLE "0:"
    INDEX 01 00:27:16
  TRACK 29 AUDIO
    TITLE "5:cjc137_6940"
    INDEX 01 00:27:22
  TRACK 30 AUDIO
    TITLE "0:"
    INDEX 01 00:29:34
  TRACK 31 AUDIO
    TITLE "4:cjc137_6941"
    INDEX 01 00:30:42
  TRACK 32 AUDIO
    TITLE "0:"
    INDEX 01 00:32:09
  TRACK 33 AUDIO
    TITLE "6:cjc137_6942"
    INDEX 01 00:32:13
  TRACK 34 AUDIO
    TITLE "0:"
    INDEX 01 00:33:21
  TRACK 35 AUDIO
    TITLE "5:cjc137_6943"
    INDEX 01 00:33:22
  TRACK 36 AUDIO
    TITLE "0:"
    INDEX 01 00:34:63
  TRACK 37 AUDIO
    TITLE "4:cjc137_6944"
    INDEX 01 00:35:72
  TRACK 38 AUDIO
    TITLE "0:"
    INDEX 01 00:37:34
  TRACK 39 AUDIO
    TITLE "6:cjc137_6945"
    INDEX 01 00:37:46
  TRACK 40 AUDIO
    TITLE "0:"
    INDEX 01 00:39:56
  TRACK 41 AUDIO
    TITLE "5:cjc137_6946"
    INDEX 01 00:39:62
  TRACK 42 AUDIO
    TITLE "0:"
    INDEX 01 00:41:28
  TRACK 43 AUDIO
    TITLE "4:cjc137_6947"
    INDEX 01 00:42:37
  TRACK 44 AUDIO
    TITLE "0:"
    INDEX 01 00:43:72
  TRACK 45 AUDIO
    TITLE "6:cjc137_6948"
    INDEX 01 00:44:05
  TRACK 46 AUDIO
    TITLE "0:"
    INDEX 01 00:45:55
  TRACK 47 AUDIO
    TITLE "5:cjc137_6949"
    INDEX 01 00:45:65
  TRACK 48 AUDIO
    TITLE "0:"
    INDEX 01 00:47:27
  TRACK 49 AUDIO
    TITLE "4:cjc137_6950"
    INDEX 01 00:48:34
  TRACK 50 AUDIO
    TITLE "0:"
    INDEX 01 00:49:67
  TRACK 51 AUDIO
    TITLE "6:cjc137_6951"
    INDEX 01 00:49:74
  TRACK 52 AUDIO
    TITLE "0:"
    INDEX 01 00:51:16
  TRACK 53 AUDIO
    TITLE "5:cjc137_6952"
    INDEX 01 00:51:22
  TRACK 54 AUDIO
    TITLE "0:"
    INDEX 01 00:52:55
  TRACK 55 AUDIO
    TITLE "4:cjc137_6953"
    INDEX 01 00:53:64
  TRACK 56 AUDIO
    TITLE "0:"
    INDEX 01 00:55:22
  TRACK 57 AUDIO
    TITLE "6:cjc137_6954"
    INDEX 01 00:55:26
  TRACK 58 AUDIO
    TITLE "0:"
    INDEX 01 00:57:09
  TRACK 59 AUDIO
    TITLE "5:cjc137_6955"
    INDEX 01 00:57:15
  TRACK 60 AUDIO
    TITLE "0:"
    INDEX 01 00:58:46
  TRACK 61 AUDIO
    TITLE "4:cjc137_6956"
    INDEX 01 00:59:55
  TRACK 62 AUDIO
    TITLE "0:"
    INDEX 01 01:01:09
  TRACK 63 AUDIO
    TITLE "6:cjc137_6957"
    INDEX 01 01:01:15
  TRACK 64 AUDIO
    TITLE "0:"
    INDEX 01 01:03:06
  TRACK 65 AUDIO
    TITLE "5:cjc137_6958"
    INDEX 01 01:03:14
  TRACK 66 AUDIO
    TITLE "0:"
    INDEX 01 01:04:43
  TRACK 67 AUDIO
    TITLE "4:cjc137_6959"
    INDEX 01 01:05:50
  TRACK 68 AUDIO
    TITLE "0:"
    INDEX 01 01:07:25
  TRACK 69 AUDIO
    TITLE "6:cjc137_6960"
    INDEX 01 01:07:31
  TRACK 70 AUDIO
    TITLE "0:"
    INDEX 01 01:08:44
  TRACK 71 AUDIO
    TITLE "5:cjc137_6961"
    INDEX 01 01:08:50
  TRACK 72 AUDIO
    TITLE "0:"
    INDEX 01 01:10:24
  TRACK 73 AUDIO
    TITLE "4:cjc137_6962"
    INDEX 01 01:11:33
  TRACK 74 AUDIO
    TITLE "0:"
    INDEX 01 01:13:08
  TRACK 75 AUDIO
    TITLE "6:cjc137_6963"
    INDEX 01 01:13:12
  TRACK 76 AUDIO
    TITLE "0:"
    INDEX 01 01:15:19
  TRACK 77 AUDIO
    TITLE "5:cjc137_6964"
    INDEX 01 01:15:23
  TRACK 78 AUDIO
    TITLE "0:"
    INDEX 01 01:16:71
  TRACK 79 AUDIO
    TITLE "4:cjc137_6965"
    INDEX 01 01:18:04
  TRACK 80 AUDIO
    TITLE "0:"
    INDEX 01 01:20:46
  TRACK 81 AUDIO
    TITLE "6:cjc137_6966"
    INDEX 01 01:20:51
  TRACK 82 AUDIO
    TITLE "0:"
    INDEX 01 01:22:50
  TRACK 83 AUDIO
    TITLE "5:cjc137_6967"
    INDEX 01 01:22:58
  TRACK 84 AUDIO
    TITLE "0:"
    INDEX 01 01:25:25
  TRACK 85 AUDIO
    TITLE "4:cjc137_6968"
    INDEX 01 01:26:34
  TRACK 86 AUDIO
    TITLE "0:"
    INDEX 01 01:28:57
  TRACK 87 AUDIO
    TITLE "6:cjc137_6969"
    INDEX 01 01:28:63
  TRACK 88 AUDIO
    TITLE "0:"
    INDEX 01 01:30:42
  TRACK 89 AUDIO
    TITLE "5:cjc137_6970"
    INDEX 01 01:30:50
  TRACK 90 AUDIO
    TITLE "0:"
    INDEX 01 01:32:74
  TRACK 91 AUDIO
    TITLE "4:cjc137_6971"
    INDEX 01 01:34:06
  TRACK 92 AUDIO
    TITLE "0:"
    INDEX 01 01:36:31
  TRACK 93 AUDIO
    TITLE "6:cjc137_6972"
    INDEX 01 01:36:45
  TRACK 94 AUDIO
    TITLE "0:"
    INDEX 01 01:38:73
  TRACK 95 AUDIO
    TITLE "5:cjc137_6973"
    INDEX 01 01:39:10
  TRACK 96 AUDIO
    TITLE "0:"
    INDEX 01 01:41:34
  TRACK 97 AUDIO
    TITLE "4:cjc137_6974"
    INDEX 01 01:42:47
  TRACK 98 AUDIO
    TITLE "0:"
    INDEX 01 01:44:13
  TRACK 99 AUDIO
    TITLE "6:cjc137_6975"
    INDEX 01 01:44:21
  TRACK 100 AUDIO
    TITLE "0:"
    INDEX 01 01:46:16
  TRACK 101 AUDIO
    TITLE "5:cjc137_6976"
    INDEX 01 01:46:25
  TRACK 102 AUDIO
    TITLE "0:"
    INDEX 01 01:47:64
  TRACK 103 AUDIO
    TITLE "4:cjc137_6977"
    INDEX 01 01:49:00
  TRACK 104 AUDIO
    TITLE "0:"
    INDEX 01 01:50:17
  TRACK 105 AUDIO
    TITLE "6:cjc137_6978"
    INDEX 01 01:50:25
  TRACK 106 AUDIO
    TITLE "0:"
    INDEX 01 01:51:48
  TRACK 107 AUDIO
    TITLE "5:cjc137_6979"
    INDEX 01 01:51:56
  TRACK 108 AUDIO
    TITLE "0:"
    INDEX 01 01:52:73
  TRACK 109 AUDIO
    TITLE "4:cjc137_6980"
    INDEX 01 01:54:07
  TRACK 110 AUDIO
    TITLE "0:"
    INDEX 01 01:55:28
  TRACK 111 AUDIO
    TITLE "6:cjc137_6981"
    INDEX 01 01:55:36
  TRACK 112 AUDIO
    TITLE "0:"
    INDEX 01 01:56:61
  TRACK 113 AUDIO
    TITLE "5:cjc137_6982"
    INDEX 01 01:56:67
  TRACK 114 AUDIO
    TITLE "0:"
    INDEX 01 01:58:13
  TRACK 115 AUDIO
    TITLE "4:cjc137_6983"
    INDEX 01 01:59:24
  TRACK 116 AUDIO
    TITLE "0:"
    INDEX 01 02:00:61
  TRACK 117 AUDIO
    TITLE "6:cjc137_6984"
    INDEX 01 02:00:69
  TRACK 118 AUDIO
    TITLE "0:"
    INDEX 01 02:02:58
  TRACK 119 AUDIO
    TITLE "5:cjc137_6985"
    INDEX 01 02:02:64
  TRACK 120 AUDIO
    TITLE "0:"
    INDEX 01 02:04:25
  TRACK 121 AUDIO
    TITLE "4:cjc137_6986"
    INDEX 01 02:05:34
  TRACK 122 AUDIO
    TITLE "0:"
    INDEX 01 02:08:00
  TRACK 123 AUDIO
    TITLE "6:cjc137_6987"
    INDEX 01 02:08:07
  TRACK 124 AUDIO
    TITLE "0:"
    INDEX 01 02:10:51
  TRACK 125 AUDIO
    TITLE "5:cjc137_6988"
    INDEX 01 02:10:59
  TRACK 126 AUDIO
    TITLE "0:"
    INDEX 01 02:13:24
  TRACK 127 AUDIO
    TITLE "4:cjc137_6989"
    INDEX 01 02:14:33
  TRACK 128 AUDIO
    TITLE "0:"
    INDEX 01 02:16:73
  TRACK 129 AUDIO
    TITLE "6:cjc137_6990"
    INDEX 01 02:17:04
  TRACK 130 AUDIO
    TITLE "0:"
    INDEX 01 02:20:11
  TRACK 131 AUDIO
    TITLE "5:cjc137_6991"
    INDEX 01 02:20:18
  TRACK 132 AUDIO
    TITLE "0:"
    INDEX 01 02:22:58
